<svg width="500" height="200" xmlns="http://www.w3.org/2000/svg">
 <defs>
  <filter color-interpolation-filters="sRGB" filterUnits="userSpaceOnUse" height="176" width="520.57" y="147.289" x="6" id="filter0_d_1661_106206">
   <feGaussianBlur stdDeviation="17"/>
  </filter>
 </defs>
 <g>
  <title>background</title>
  <rect fill="none" id="canvas_background" height="202" width="502" y="-1" x="-1"/>
 </g>
 <g>
  <title>Layer 1</title>
  <g id="svg_1" filter="url(#filter0_d_1661_106206)">
   <path id="svg_2" fill="white" d="m13,57.575c0,-5.681 4.6051,-10.286 10.2857,-10.286l432.0003,0c5.68,0 10.285,4.605 10.285,10.286l0,87.428c0,5.681 -4.605,10.286 -10.285,10.286l-432.0003,0c-5.6806,0 -10.2857,-4.605 -10.2857,-10.286l0,-87.428z"/>
  </g>
  <path id="svg_3" fill="black" d="m40.7712,110.281l-2.4647,0l0,-4.341l-2.7748,0l-0.4734,-0.221c-1.0065,-0.141 -1.7791,-0.533 -2.3178,-1.175c-0.5332,-0.647 -0.7998,-1.45 -0.7998,-2.407c0,-1.154 0.3809,-2.065 1.1426,-2.735c0.7671,-0.669 1.8526,-1.003 3.2563,-1.003l4.4316,0l0,11.882zm-2.4647,-6.145l0,-3.909l-1.8036,0c-0.7835,0 -1.3303,0.179 -1.6405,0.538c-0.3046,0.354 -0.457,0.814 -0.457,1.38c0,0.576 0.1524,1.052 0.457,1.428c0.3102,0.375 0.857,0.563 1.6405,0.563l1.8036,0zm-4.1704,6.145l-2.6361,0l2.987,-5.476l2.5463,0l-2.8972,5.476z"/>
  <path id="svg_4" fill="black" d="m48.5404,106.185l0,-1.992l12.6255,0l0,1.992l-12.6255,0z"/>
  <path id="svg_5" fill="black" d="m68.2577,106.07l0,-0.261c0,-1.355 0.4135,-2.435 1.2405,-3.24c0.827,-0.805 1.907,-1.208 3.2401,-1.208c1.3327,0 2.4127,0.403 3.2397,1.208c0.827,0.805 1.241,1.885 1.241,3.24l0,0.261c0,1.355 -0.414,2.438 -1.241,3.248c-0.827,0.806 -1.907,1.208 -3.2397,1.208c-1.3331,0 -2.4131,-0.402 -3.2401,-1.208c-0.827,-0.81 -1.2405,-1.893 -1.2405,-3.248zm2.4484,-0.375l0,0.49c0,0.805 0.1741,1.43 0.5223,1.877c0.3537,0.44 0.857,0.661 1.5099,0.661c0.6527,0 1.1537,-0.221 1.5017,-0.661c0.348,-0.447 0.522,-1.072 0.522,-1.877l0,-0.49c0,-0.805 -0.177,-1.428 -0.53,-1.869c-0.354,-0.441 -0.852,-0.661 -1.4937,-0.661c-0.6475,0 -1.1481,0.22 -1.5017,0.661c-0.3537,0.441 -0.5305,1.064 -0.5305,1.869z"/>
  <path id="svg_6" fill="black" d="m81.099,106.013l0,0.253c0,0.784 0.169,1.39 0.506,1.82c0.343,0.424 0.852,0.637 1.526,0.637c0.67,0 1.173,-0.213 1.51,-0.637c0.343,-0.43 0.514,-1.036 0.514,-1.82l0,-0.253c0,-0.745 -0.171,-1.333 -0.514,-1.763c-0.337,-0.43 -0.84,-0.644 -1.51,-0.644c-0.669,0 -1.175,0.214 -1.518,0.644c-0.342,0.43 -0.514,1.018 -0.514,1.763zm2.669,-4.195c1.192,0 2.13,0.387 2.816,1.159c0.685,0.773 1.028,1.782 1.028,3.028l0,0.261c0,1.268 -0.413,2.296 -1.241,3.085c-0.821,0.784 -1.898,1.175 -3.231,1.175c-1.382,0 -2.476,-0.394 -3.281,-1.183c-0.805,-0.794 -1.208,-2.027 -1.208,-3.697l0,-0.931c0,-1.888 0.354,-3.343 1.061,-4.366c0.707,-1.028 1.882,-1.667 3.526,-1.918c0.903,-0.136 1.428,-0.25 1.575,-0.342c0.147,-0.093 0.234,-0.207 0.261,-0.343l2.203,0c-0.049,0.821 -0.299,1.417 -0.75,1.787c-0.452,0.37 -1.295,0.639 -2.53,0.808c-1.257,0.169 -2.114,0.506 -2.571,1.012c-0.452,0.506 -0.713,1.211 -0.784,2.114l0.082,0c0.277,-0.517 0.677,-0.92 1.2,-1.208c0.522,-0.294 1.137,-0.441 1.844,-0.441z"/>
  <path id="svg_7" fill="black" d="m91.835,101.606l0,2.816l1.935,0c1.104,0 1.945,0.264 2.521,0.791c0.577,0.523 0.865,1.241 0.865,2.155c0,0.93 -0.288,1.648 -0.865,2.154c-0.576,0.506 -1.417,0.759 -2.521,0.759l-4.318,0l0,-8.675l2.383,0zm1.518,4.472l-1.518,0l0,2.555l1.518,0c0.501,0 0.86,-0.114 1.078,-0.343c0.217,-0.228 0.326,-0.547 0.326,-0.955c0,-0.386 -0.109,-0.691 -0.326,-0.914c-0.213,-0.228 -0.572,-0.343 -1.078,-0.343zm4.734,4.203l0,-8.675l2.399,0l0,8.675l-2.399,0z"/>
  <path id="svg_8" fill="black" d="m104.979,103.973c0,0.571 0.117,0.971 0.351,1.2c0.239,0.223 0.647,0.334 1.224,0.334c0.495,0 0.933,-0.035 1.314,-0.106c0.381,-0.071 0.813,-0.171 1.298,-0.302l0,1.738c-0.474,0.109 -0.963,0.204 -1.469,0.286c-0.501,0.082 -1.116,0.122 -1.845,0.122c-1.083,0 -1.899,-0.239 -2.448,-0.718c-0.544,-0.484 -0.816,-1.265 -0.816,-2.342l0,-2.579l2.391,0l0,2.367zm5.378,-2.367l0,8.675l-2.383,0l0,-8.675l2.383,0z"/>
  <path id="svg_9" fill="black" d="m112.703,101.606l2.383,0l0,3.362l3.118,0l0,-3.362l2.391,0l0,8.675l-2.391,0l0,-3.533l-3.118,0l0,3.533l-2.383,0l0,-8.675z"/>
  <path id="svg_10" fill="black" d="m125.325,101.606l0,2.816l1.934,0c1.104,0 1.945,0.264 2.522,0.791c0.576,0.523 0.865,1.241 0.865,2.155c0,0.93 -0.289,1.648 -0.865,2.154c-0.577,0.506 -1.418,0.759 -2.522,0.759l-4.317,0l0,-8.675l2.383,0zm1.518,4.472l-1.518,0l0,2.555l1.518,0c0.5,0 0.859,-0.114 1.077,-0.343c0.218,-0.228 0.326,-0.547 0.326,-0.955c0,-0.386 -0.108,-0.691 -0.326,-0.914c-0.212,-0.228 -0.571,-0.343 -1.077,-0.343zm4.733,4.203l0,-8.675l2.4,0l0,8.675l-2.4,0z"/>
  <path id="svg_11" fill="black" d="m136.314,110.281l0,-8.675l2.375,0l0,4.383c0,0.163 -0.006,0.367 -0.017,0.612c-0.005,0.245 -0.016,0.443 -0.032,0.595l0.081,0.009c0.071,-0.142 0.155,-0.3 0.253,-0.474c0.098,-0.179 0.207,-0.378 0.327,-0.595l2.668,-4.53l2.4,0l0,8.675l-2.383,0l0,-4.407c0,-0.163 0.002,-0.361 0.008,-0.595c0.005,-0.234 0.011,-0.433 0.016,-0.596l-0.09,0c-0.065,0.147 -0.144,0.305 -0.236,0.473c-0.087,0.169 -0.191,0.359 -0.31,0.571l-2.669,4.554l-2.391,0zm4.031,-11.45c0.419,0 0.762,-0.117 1.029,-0.351c0.272,-0.239 0.465,-0.628 0.579,-1.167l1.494,0.702c-0.262,0.816 -0.672,1.393 -1.233,1.73c-0.555,0.338 -1.178,0.506 -1.869,0.506c-0.691,0 -1.314,-0.166 -1.869,-0.498c-0.555,-0.337 -0.965,-0.916 -1.232,-1.738l1.567,-0.718c0.114,0.56 0.296,0.957 0.547,1.191c0.25,0.229 0.579,0.343 0.987,0.343z"/>
  <path id="svg_12" fill="black" d="m151.142,110.281l0,-11.882l2.645,0l4.341,7.443c0.098,0.163 0.183,0.323 0.253,0.481c0.071,0.153 0.136,0.313 0.196,0.482l0.074,0c-0.011,-0.18 -0.019,-0.362 -0.025,-0.547c-0.005,-0.185 -0.008,-0.37 -0.008,-0.555l0,-7.304l2.138,0l0,11.882l-2.701,0l-4.301,-7.385c-0.098,-0.169 -0.182,-0.33 -0.253,-0.482c-0.065,-0.158 -0.128,-0.321 -0.188,-0.49l-0.065,0c0.011,0.185 0.019,0.373 0.024,0.563c0.006,0.185 0.009,0.37 0.009,0.555l0,7.239l-2.139,0z"/>
  <path id="svg_13" fill="black" d="m162.817,106.07l0,-0.261c0,-1.355 0.413,-2.435 1.24,-3.24c0.827,-0.805 1.907,-1.208 3.24,-1.208c1.333,0 2.413,0.403 3.24,1.208c0.827,0.805 1.241,1.885 1.241,3.24l0,0.261c0,1.355 -0.414,2.438 -1.241,3.248c-0.827,0.806 -1.907,1.208 -3.24,1.208c-1.333,0 -2.413,-0.402 -3.24,-1.208c-0.827,-0.81 -1.24,-1.893 -1.24,-3.248zm2.448,-0.375l0,0.49c0,0.805 0.174,1.43 0.523,1.877c0.353,0.44 0.856,0.661 1.509,0.661c0.653,0 1.154,-0.221 1.502,-0.661c0.348,-0.447 0.522,-1.072 0.522,-1.877l0,-0.49c0,-0.805 -0.176,-1.428 -0.53,-1.869c-0.354,-0.441 -0.852,-0.661 -1.494,-0.661c-0.647,0 -1.148,0.22 -1.501,0.661c-0.354,0.441 -0.531,1.064 -0.531,1.869z"/>
  <path id="svg_14" fill="black" d="m172.557,103.336l0,-1.73l5.338,0l0,1.73l-5.338,0zm1.322,4.399l0,-5.215l0,-0.237l0,-2.652l2.375,0l0,8.063c0,0.387 0.074,0.656 0.221,0.808c0.146,0.153 0.353,0.229 0.62,0.229c0.13,0 0.258,-0.017 0.383,-0.049c0.131,-0.033 0.256,-0.071 0.376,-0.114l0,1.705c-0.125,0.066 -0.305,0.123 -0.539,0.172c-0.228,0.054 -0.476,0.081 -0.743,0.081c-0.81,0 -1.463,-0.223 -1.958,-0.669c-0.49,-0.452 -0.735,-1.159 -0.735,-2.122z"/>
  <path id="svg_15" fill="black" d="m179.539,110.281l0,-8.675l2.399,0l0,8.675l-2.399,0zm-0.204,-11.058c0,-0.359 0.12,-0.661 0.359,-0.906c0.245,-0.25 0.593,-0.375 1.045,-0.375c0.451,0 0.797,0.125 1.036,0.375c0.24,0.245 0.359,0.547 0.359,0.906c0,0.364 -0.119,0.669 -0.359,0.914c-0.239,0.245 -0.587,0.367 -1.045,0.367c-0.446,0 -0.791,-0.122 -1.036,-0.367c-0.239,-0.245 -0.359,-0.55 -0.359,-0.914z"/>
  <path id="svg_16" fill="black" d="m184.595,110.281l0,-9.32c0,-1.115 0.313,-1.95 0.938,-2.505c0.631,-0.561 1.437,-0.841 2.416,-0.841c0.201,0 0.397,0.011 0.588,0.033c0.19,0.022 0.364,0.054 0.522,0.098l-0.074,1.746c-0.108,-0.022 -0.223,-0.041 -0.342,-0.057c-0.12,-0.016 -0.245,-0.024 -0.376,-0.024c-0.408,0 -0.726,0.133 -0.955,0.4c-0.223,0.261 -0.334,0.658 -0.334,1.191l0,1.33l0.008,0.18l0,7.769l-2.391,0zm-1.176,-6.945l0,-1.73l2.098,0l0.326,0l2.726,0l0,1.73l-5.15,0zm6.195,6.945l0,-8.675l2.399,0l0,8.675l-2.399,0zm-0.204,-11.058c0,-0.359 0.12,-0.661 0.359,-0.906c0.245,-0.25 0.593,-0.375 1.045,-0.375c0.451,0 0.797,0.125 1.036,0.375c0.239,0.245 0.359,0.547 0.359,0.906c0,0.364 -0.12,0.669 -0.359,0.914c-0.239,0.245 -0.588,0.367 -1.045,0.367c-0.446,0 -0.791,-0.122 -1.036,-0.367c-0.239,-0.245 -0.359,-0.55 -0.359,-0.914z"/>
  <path id="svg_17" fill="black" d="m193.911,106.07l0,-0.261c0,-1.355 0.4,-2.435 1.199,-3.24c0.806,-0.805 1.877,-1.208 3.216,-1.208c1.268,0 2.233,0.316 2.897,0.947c0.664,0.626 1.018,1.363 1.061,2.212l0.008,0.13l-2.334,0l0,-0.098c0,-0.402 -0.136,-0.74 -0.408,-1.012c-0.272,-0.277 -0.685,-0.416 -1.24,-0.416c-0.648,0 -1.135,0.237 -1.461,0.71c-0.327,0.468 -0.49,1.088 -0.49,1.861l0,0.49c0,0.772 0.158,1.395 0.473,1.868c0.321,0.474 0.814,0.71 1.478,0.71c0.593,0 1.014,-0.144 1.265,-0.432c0.25,-0.294 0.375,-0.631 0.375,-1.012l0,-0.082l2.334,0l0,0.09c0,0.849 -0.343,1.594 -1.028,2.236c-0.68,0.642 -1.657,0.963 -2.93,0.963c-1.339,0 -2.41,-0.402 -3.216,-1.208c-0.799,-0.805 -1.199,-1.888 -1.199,-3.248z"/>
  <path id="svg_18" fill="black" d="m203.529,107.727c0,-0.958 0.375,-1.679 1.126,-2.163c0.756,-0.489 1.705,-0.734 2.848,-0.734l1.706,0l0,-0.523c0,-0.391 -0.106,-0.707 -0.319,-0.946c-0.206,-0.245 -0.571,-0.368 -1.093,-0.368c-0.528,0 -0.903,0.104 -1.126,0.311c-0.218,0.201 -0.327,0.448 -0.327,0.742l0,0.115l-2.358,0l0,-0.115c0,-0.767 0.359,-1.406 1.077,-1.918c0.723,-0.511 1.665,-0.767 2.824,-0.767c1.159,0 2.067,0.242 2.725,0.727c0.659,0.484 0.988,1.226 0.988,2.228l0,4.031c0,0.348 0.03,0.68 0.09,0.996c0.065,0.315 0.149,0.585 0.253,0.808l0,0.13l-2.342,0c-0.066,-0.125 -0.126,-0.291 -0.18,-0.497c-0.054,-0.207 -0.09,-0.411 -0.106,-0.612c-0.174,0.331 -0.501,0.628 -0.979,0.889c-0.474,0.256 -1.064,0.384 -1.771,0.384c-0.855,0 -1.576,-0.226 -2.163,-0.678c-0.582,-0.457 -0.873,-1.137 -0.873,-2.04zm2.399,-0.188c0,0.387 0.111,0.697 0.335,0.931c0.223,0.234 0.579,0.351 1.069,0.351c0.527,0 0.971,-0.166 1.33,-0.498c0.364,-0.332 0.547,-0.724 0.547,-1.175l0,-0.866l-1.396,0c-0.636,0 -1.11,0.109 -1.42,0.327c-0.31,0.218 -0.465,0.528 -0.465,0.93z"/>
  <path id="svg_19" fill="black" d="m212.91,103.336l0,-1.73l5.337,0l0,1.73l-5.337,0zm1.322,4.399l0,-5.215l0,-0.237l0,-2.652l2.375,0l0,8.063c0,0.387 0.073,0.656 0.22,0.808c0.147,0.153 0.354,0.229 0.62,0.229c0.131,0 0.259,-0.017 0.384,-0.049c0.131,-0.033 0.256,-0.071 0.375,-0.114l0,1.705c-0.125,0.066 -0.304,0.123 -0.538,0.172c-0.229,0.054 -0.476,0.081 -0.743,0.081c-0.811,0 -1.464,-0.223 -1.959,-0.669c-0.489,-0.452 -0.734,-1.159 -0.734,-2.122z"/>
  <path id="svg_20" fill="black" d="m219.892,110.281l0,-8.675l2.399,0l0,8.675l-2.399,0zm-0.204,-11.058c0,-0.359 0.119,-0.661 0.359,-0.906c0.244,-0.25 0.593,-0.375 1.044,-0.375c0.452,0 0.797,0.125 1.037,0.375c0.239,0.245 0.359,0.547 0.359,0.906c0,0.364 -0.12,0.669 -0.359,0.914c-0.24,0.245 -0.588,0.367 -1.045,0.367c-0.446,0 -0.792,-0.122 -1.036,-0.367c-0.24,-0.245 -0.359,-0.55 -0.359,-0.914z"/>
  <path id="svg_21" fill="black" d="m224.188,106.07l0,-0.261c0,-1.355 0.414,-2.435 1.241,-3.24c0.827,-0.805 1.907,-1.208 3.24,-1.208c1.333,0 2.413,0.403 3.24,1.208c0.827,0.805 1.24,1.885 1.24,3.24l0,0.261c0,1.355 -0.413,2.438 -1.24,3.248c-0.827,0.806 -1.907,1.208 -3.24,1.208c-1.333,0 -2.413,-0.402 -3.24,-1.208c-0.827,-0.81 -1.241,-1.893 -1.241,-3.248zm2.449,-0.375l0,0.49c0,0.805 0.174,1.43 0.522,1.877c0.354,0.44 0.857,0.661 1.51,0.661c0.653,0 1.153,-0.221 1.501,-0.661c0.349,-0.447 0.523,-1.072 0.523,-1.877l0,-0.49c0,-0.805 -0.177,-1.428 -0.531,-1.869c-0.353,-0.441 -0.851,-0.661 -1.493,-0.661c-0.648,0 -1.148,0.22 -1.502,0.661c-0.354,0.441 -0.53,1.064 -0.53,1.869z"/>
  <path id="svg_22" fill="black" d="m235.014,110.281l0,-8.675l2.261,0l0.057,0.988l0.041,0c0.239,-0.343 0.582,-0.621 1.028,-0.833c0.446,-0.218 0.939,-0.326 1.477,-0.326c0.903,0 1.635,0.255 2.196,0.767c0.565,0.506 0.848,1.395 0.848,2.669l0,5.41l-2.391,0l0,-5.476c0,-0.566 -0.122,-0.963 -0.367,-1.191c-0.24,-0.234 -0.582,-0.351 -1.029,-0.351c-0.369,0 -0.71,0.106 -1.02,0.318c-0.31,0.207 -0.546,0.495 -0.71,0.865l0,5.835l-2.391,0z"/>
  <path id="svg_23" fill="black" d="m249.631,110.281l0,-11.882l4.529,0c1.404,0 2.481,0.334 3.232,1.003c0.756,0.664 1.134,1.606 1.134,2.824c0,1.214 -0.378,2.16 -1.134,2.84c-0.751,0.681 -1.828,1.021 -3.232,1.021l-2.065,0l0,4.194l-2.464,0zm2.464,-6.031l1.877,0c0.784,0 1.328,-0.182 1.633,-0.547c0.304,-0.364 0.457,-0.856 0.457,-1.477c0,-0.615 -0.153,-1.099 -0.457,-1.452c-0.305,-0.354 -0.849,-0.531 -1.633,-0.531l-1.877,0l0,4.007z"/>
  <path id="svg_24" fill="black" d="m260.114,106.911l0,-5.305l2.391,0l0,5.37c0,0.615 0.125,1.045 0.375,1.29c0.251,0.239 0.593,0.359 1.029,0.359c0.386,0 0.731,-0.112 1.036,-0.335c0.305,-0.228 0.533,-0.511 0.686,-0.849l0,-5.835l2.391,0l0,8.675l-2.261,0l-0.057,-0.987l-0.041,0c-0.266,0.359 -0.623,0.642 -1.069,0.849c-0.446,0.201 -0.941,0.302 -1.485,0.302c-0.882,0 -1.603,-0.27 -2.163,-0.808c-0.555,-0.544 -0.832,-1.453 -0.832,-2.726z"/>
  <path id="svg_25" fill="black" d="m269.821,107.564l2.359,0l0,0.13c0,0.414 0.141,0.719 0.424,0.914c0.289,0.191 0.678,0.286 1.167,0.286c0.495,0 0.868,-0.09 1.118,-0.269c0.256,-0.185 0.384,-0.433 0.384,-0.743c0,-0.31 -0.128,-0.539 -0.384,-0.686c-0.255,-0.152 -0.87,-0.326 -1.844,-0.522c-1.023,-0.201 -1.774,-0.519 -2.253,-0.955c-0.473,-0.435 -0.71,-1.001 -0.71,-1.697c0,-0.811 0.332,-1.458 0.996,-1.943c0.664,-0.484 1.559,-0.726 2.685,-0.726c1.126,0 2.027,0.25 2.702,0.751c0.68,0.5 1.02,1.178 1.02,2.032l0,0.098l-2.343,0l0,-0.131c0,-0.342 -0.114,-0.612 -0.342,-0.808c-0.223,-0.195 -0.572,-0.293 -1.045,-0.293c-0.468,0 -0.808,0.081 -1.02,0.244c-0.207,0.158 -0.31,0.365 -0.31,0.621c0,0.261 0.128,0.47 0.383,0.628c0.256,0.158 0.882,0.335 1.877,0.531c1.018,0.201 1.766,0.514 2.245,0.938c0.478,0.425 0.718,1.007 0.718,1.747c0,0.87 -0.329,1.558 -0.988,2.064c-0.653,0.501 -1.616,0.751 -2.889,0.751c-1.257,0 -2.23,-0.25 -2.921,-0.751c-0.686,-0.506 -1.029,-1.213 -1.029,-2.121l0,-0.09z"/>
  <path id="svg_26" fill="black" d="m279.513,110.281l0,-12.503l2.383,0l0,4.954c0.266,-0.386 0.614,-0.699 1.044,-0.938c0.436,-0.24 0.963,-0.359 1.584,-0.359c0.837,0 1.523,0.261 2.056,0.783c0.539,0.522 0.808,1.374 0.808,2.555l0,5.508l-2.391,0l0,-5.394c0,-0.588 -0.131,-1.004 -0.392,-1.249c-0.256,-0.25 -0.604,-0.375 -1.044,-0.375c-0.392,0 -0.73,0.111 -1.012,0.334c-0.283,0.218 -0.498,0.523 -0.645,0.914l0,5.77l-2.391,0z"/>
  <path id="svg_27" fill="black" d="m39.5644,132.141l-5.1335,-6.04l1.3303,-0.677l5.7456,6.717l-1.9424,0zm-6.3821,-6.782l1.7302,0l4.4479,-5.101l1.7954,0l-5.5986,6.406l-2.3749,0l0,-1.305zm-0.7917,6.782l0,-11.883l1.5833,0l0,11.883l-1.5833,0z"/>
  <path id="svg_28" fill="black" d="m44.7386,124.706l-0.1469,3.436c-0.0653,1.474 -0.253,2.538 -0.5631,3.191c-0.3101,0.653 -0.8787,0.979 -1.7057,0.979c-0.185,0 -0.3537,-0.014 -0.506,-0.041c-0.1523,-0.022 -0.2802,-0.057 -0.3836,-0.106l0,-1.298c0.0925,0.039 0.1877,0.066 0.2857,0.082c0.1033,0.016 0.2149,0.025 0.3346,0.025c0.4244,0 0.7073,-0.218 0.8487,-0.653c0.1415,-0.436 0.2367,-1.233 0.2857,-2.392l0.1959,-4.423l6.0311,0l0,8.635l-1.5343,0l0,-7.435l-3.1421,0z"/>
  <path id="svg_29" fill="black" d="m51.8634,132.141l0,-8.635l1.518,0l0,5.337c0,0.164 -0.0027,0.349 -0.0081,0.555c0,0.207 -0.0028,0.392 -0.0082,0.555l0.0734,0c0.0762,-0.136 0.1606,-0.283 0.253,-0.44c0.098,-0.164 0.2014,-0.332 0.3102,-0.506l3.444,-5.501l1.5425,0l0,8.635l-1.518,0l0,-5.338c0,-0.163 0.0027,-0.351 0.0082,-0.563c0.0109,-0.218 0.0217,-0.408 0.0326,-0.571l-0.1142,0c-0.0653,0.136 -0.1469,0.291 -0.2449,0.465c-0.0925,0.169 -0.1931,0.337 -0.3019,0.506l-3.4441,5.501l-1.5425,0z"/>
  <path id="svg_30" fill="black" d="m60.898,127.954l0,-0.261c0,-1.306 0.359,-2.37 1.0772,-3.191c0.7237,-0.827 1.6785,-1.241 2.8646,-1.241c1.1862,0 2.0975,0.386 2.7341,1.159c0.642,0.767 0.963,1.809 0.963,3.126l0,0.628l-6.6922,0l0,-1.224l5.1497,0l0,-0.155c0,-0.637 -0.1768,-1.175 -0.5305,-1.616c-0.3536,-0.441 -0.8787,-0.661 -1.5751,-0.661c-0.8107,0 -1.4173,0.307 -1.8199,0.922c-0.4027,0.61 -0.604,1.36 -0.604,2.253l0,0.261c0,0.887 0.2122,1.638 0.6366,2.252c0.4244,0.615 1.0854,0.923 1.9832,0.923c0.5495,0 1.0229,-0.12 1.42,-0.359c0.4027,-0.24 0.7264,-0.523 0.9712,-0.849l0.9876,0.791c-0.2721,0.408 -0.6965,0.789 -1.2732,1.143c-0.5767,0.354 -1.2786,0.53 -2.1056,0.53c-1.3493,0 -2.3858,-0.413 -3.1095,-1.24c-0.7182,-0.827 -1.0772,-1.891 -1.0772,-3.191z"/>
  <path id="svg_31" fill="black" d="m70.3732,123.506l1.5343,0l0,3.624l3.9015,0l0,-3.624l1.534,0l0,8.635l-1.534,0l0,-3.804l-3.9015,0l0,3.804l-1.5343,0l0,-8.635z"/>
  <path id="svg_32" fill="black" d="m78.812,124.706l0,-1.2l6.97,0l0,1.2l-2.718,0l0,7.435l-1.534,0l0,-7.435l-2.718,0z"/>
  <path id="svg_33" fill="black" d="m90.54,135.536l0,-1.306c0.147,0.043 0.307,0.079 0.481,0.106c0.174,0.027 0.346,0.041 0.514,0.041c0.387,0 0.719,-0.136 0.996,-0.408c0.283,-0.272 0.588,-0.895 0.914,-1.869l0,-0.008l-3.24,-8.586l1.494,0l2.056,5.664c0.076,0.218 0.144,0.424 0.204,0.62c0.066,0.196 0.12,0.381 0.163,0.555l0.049,0c0.044,-0.174 0.098,-0.359 0.164,-0.555c0.065,-0.196 0.133,-0.402 0.204,-0.62l1.918,-5.664l1.452,0l-3.525,9.777c-0.278,0.762 -0.645,1.355 -1.102,1.779c-0.452,0.425 -1.007,0.637 -1.665,0.637c-0.223,0 -0.419,-0.014 -0.588,-0.041c-0.168,-0.027 -0.332,-0.068 -0.489,-0.122z"/>
  <path id="svg_34" fill="black" d="m99.117,132.141l0,-8.635l3.73,0c0.957,0 1.711,0.193 2.261,0.579c0.555,0.381 0.832,0.955 0.832,1.722c0,0.49 -0.147,0.898 -0.441,1.225c-0.288,0.326 -0.677,0.541 -1.167,0.644l0,0.025c0.599,0.087 1.067,0.299 1.404,0.636c0.337,0.338 0.506,0.768 0.506,1.29c0,0.794 -0.288,1.412 -0.865,1.853c-0.577,0.44 -1.339,0.661 -2.285,0.661l-3.975,0zm1.535,-4.987l2.195,0c0.544,0 0.936,-0.111 1.175,-0.335c0.245,-0.228 0.367,-0.535 0.367,-0.922c0,-0.386 -0.122,-0.68 -0.367,-0.881c-0.239,-0.201 -0.631,-0.305 -1.175,-0.31l-2.195,0l0,2.448zm0,3.779l2.44,0c0.549,0 0.955,-0.117 1.216,-0.351c0.261,-0.24 0.392,-0.558 0.392,-0.955c0,-0.386 -0.131,-0.696 -0.392,-0.93c-0.256,-0.234 -0.661,-0.351 -1.216,-0.351l-2.44,0l0,2.587z"/>
  <path id="svg_35" fill="black" d="m108.307,132.141l0,-8.635l1.518,0l0,5.337c0,0.164 -0.003,0.349 -0.008,0.555c0,0.207 -0.003,0.392 -0.009,0.555l0.074,0c0.076,-0.136 0.16,-0.283 0.253,-0.44c0.098,-0.164 0.201,-0.332 0.31,-0.506l3.444,-5.501l1.543,0l0,8.635l-1.518,0l0,-5.338c0,-0.163 0.002,-0.351 0.008,-0.563c0.011,-0.218 0.022,-0.408 0.032,-0.571l-0.114,0c-0.065,0.136 -0.147,0.291 -0.245,0.465c-0.092,0.169 -0.193,0.337 -0.302,0.506l-3.444,5.501l-1.542,0z"/>
  <path id="svg_36" fill="black" d="m124.417,134.344l0,-2.203l-6.292,0l0,2.203l-1.396,0l0,-3.411l9.084,0l0,3.411l-1.396,0zm-4.627,-9.638l-0.131,3.101c-0.038,0.914 -0.095,1.602 -0.171,2.065c-0.076,0.462 -0.188,0.862 -0.335,1.199l-1.599,0c0.184,-0.244 0.337,-0.612 0.457,-1.101c0.119,-0.495 0.201,-1.287 0.244,-2.375l0.18,-4.089l6.113,0l0,8.635l-1.535,0l0,-7.435l-3.223,0z"/>
  <path id="svg_37" fill="black" d="m127.192,132.141l0,-8.635l1.518,0l0,5.337c0,0.164 -0.003,0.349 -0.008,0.555c0,0.207 -0.003,0.392 -0.008,0.555l0.073,0c0.076,-0.136 0.161,-0.283 0.253,-0.44c0.098,-0.164 0.201,-0.332 0.31,-0.506l3.444,-5.501l1.543,0l0,8.635l-1.518,0l0,-5.338c0,-0.163 0.002,-0.351 0.008,-0.563c0.011,-0.218 0.022,-0.408 0.033,-0.571l-0.115,0c-0.065,0.136 -0.147,0.291 -0.245,0.465c-0.092,0.169 -0.193,0.337 -0.301,0.506l-3.445,5.501l-1.542,0z"/>
  <path id="svg_38" fill="black" d="m135.794,124.706l0,-1.2l6.97,0l0,1.2l-2.718,0l0,7.435l-1.534,0l0,-7.435l-2.718,0z"/>
  <path id="svg_39" fill="black" d="m148.313,132.141l0,-8.635l2.114,0l2.473,5.95c0.131,0.315 0.215,0.535 0.253,0.661c0.038,0.125 0.073,0.253 0.106,0.383l0.082,0c0.027,-0.13 0.057,-0.258 0.089,-0.383c0.039,-0.126 0.123,-0.34 0.253,-0.645l2.49,-5.966l2.073,0l0,8.635l-1.469,0l0,-5.876c0,-0.327 0.002,-0.558 0.008,-0.694c0.011,-0.142 0.022,-0.267 0.032,-0.376l-0.073,0c-0.027,0.109 -0.06,0.234 -0.098,0.376c-0.038,0.136 -0.122,0.359 -0.253,0.669l-2.465,5.901l-1.346,0l-2.473,-5.925c-0.114,-0.283 -0.193,-0.496 -0.237,-0.637c-0.038,-0.147 -0.071,-0.275 -0.098,-0.384l-0.081,0c0.01,0.109 0.019,0.232 0.024,0.368c0.011,0.136 0.016,0.351 0.016,0.644l0,5.934l-1.42,0z"/>
  <path id="svg_40" fill="black" d="m160.155,127.954l0,-0.261c0,-1.306 0.359,-2.37 1.078,-3.191c0.723,-0.827 1.678,-1.241 2.864,-1.241c1.186,0 2.098,0.386 2.734,1.159c0.642,0.767 0.963,1.809 0.963,3.126l0,0.628l-6.692,0l0,-1.224l5.15,0l0,-0.155c0,-0.637 -0.177,-1.175 -0.531,-1.616c-0.353,-0.441 -0.878,-0.661 -1.575,-0.661c-0.81,0 -1.417,0.307 -1.82,0.922c-0.402,0.61 -0.604,1.36 -0.604,2.253l0,0.261c0,0.887 0.213,1.638 0.637,2.252c0.424,0.615 1.085,0.923 1.983,0.923c0.55,0 1.023,-0.12 1.42,-0.359c0.403,-0.24 0.727,-0.523 0.971,-0.849l0.988,0.791c-0.272,0.408 -0.697,0.789 -1.273,1.143c-0.577,0.354 -1.279,0.53 -2.106,0.53c-1.349,0 -2.386,-0.413 -3.109,-1.24c-0.719,-0.827 -1.078,-1.891 -1.078,-3.191z"/>
  <path id="svg_41" fill="black" d="m169.631,123.506l1.534,0l0,3.624l3.901,0l0,-3.624l1.534,0l0,8.635l-1.534,0l0,-3.804l-3.901,0l0,3.804l-1.534,0l0,-8.635z"/>
  <path id="svg_42" fill="black" d="m180.175,132.141l-1.698,0l2.637,-3.706l1.534,0.139l-2.473,3.567zm4.007,0l0,-3.142l-1.983,0l-0.147,-0.09c-1.05,0 -1.858,-0.237 -2.424,-0.71c-0.566,-0.479 -0.849,-1.121 -0.849,-1.926c0,-0.844 0.286,-1.516 0.857,-2.016c0.572,-0.501 1.385,-0.751 2.441,-0.751l3.639,0l0,8.635l-1.534,0zm-2.105,-4.342l2.105,0l0,-3.093l-2.105,0c-0.648,0 -1.102,0.149 -1.363,0.449c-0.262,0.293 -0.392,0.666 -0.392,1.118c0,0.446 0.128,0.813 0.383,1.101c0.262,0.283 0.719,0.425 1.372,0.425z"/>
  <path id="svg_43" fill="black" d="m192.221,123.506l1.534,0l0,3.624l3.901,0l0,-3.624l1.535,0l0,8.635l-1.535,0l0,-3.804l-3.901,0l0,3.804l-1.534,0l0,-8.635z"/>
  <path id="svg_44" fill="black" d="m201.133,129.594c0,-0.876 0.351,-1.556 1.053,-2.04c0.702,-0.49 1.591,-0.735 2.669,-0.735l1.983,0l0,-0.603c0,-0.512 -0.136,-0.928 -0.408,-1.249c-0.272,-0.321 -0.74,-0.482 -1.404,-0.482c-0.669,0 -1.145,0.136 -1.428,0.408c-0.283,0.267 -0.425,0.577 -0.425,0.931l0,0.041l-1.526,0l0,-0.041c0,-0.686 0.308,-1.284 0.922,-1.796c0.615,-0.511 1.448,-0.767 2.498,-0.767c1.044,0 1.855,0.248 2.432,0.743c0.582,0.495 0.873,1.232 0.873,2.212l0,3.966c0,0.354 0.027,0.688 0.082,1.004c0.054,0.31 0.13,0.585 0.228,0.824l0,0.131l-1.485,0c-0.076,-0.136 -0.147,-0.313 -0.212,-0.531c-0.06,-0.223 -0.098,-0.443 -0.115,-0.661c-0.206,0.354 -0.538,0.669 -0.995,0.947c-0.457,0.272 -1.045,0.408 -1.763,0.408c-0.827,0 -1.532,-0.231 -2.114,-0.694c-0.577,-0.468 -0.865,-1.14 -0.865,-2.016zm1.534,-0.081c0,0.489 0.145,0.873 0.433,1.15c0.288,0.278 0.737,0.417 1.347,0.417c0.609,0 1.158,-0.207 1.648,-0.621c0.495,-0.413 0.743,-0.851 0.743,-1.314l0,-1.232l-1.812,0c-0.778,0 -1.366,0.144 -1.763,0.433c-0.397,0.288 -0.596,0.677 -0.596,1.167z"/>
  <path id="svg_45" fill="black" d="m221.7,127.954c0,1.355 -0.357,2.432 -1.07,3.232c-0.712,0.8 -1.673,1.199 -2.881,1.199c-1.18,0 -2.078,-0.307 -2.693,-0.922c-0.615,-0.62 -0.922,-1.311 -0.922,-2.073l0,-0.041l1.485,0l0,0.041c0,0.457 0.169,0.863 0.506,1.216c0.338,0.349 0.879,0.523 1.624,0.523c0.784,0 1.382,-0.294 1.796,-0.882c0.419,-0.593 0.628,-1.336 0.628,-2.228l0,-0.473c0,-0.849 -0.209,-1.564 -0.628,-2.147c-0.414,-0.587 -1.001,-0.881 -1.763,-0.881c-0.74,0 -1.278,0.18 -1.616,0.539c-0.332,0.353 -0.498,0.753 -0.498,1.199l0,0.041l-1.493,0l0,-0.041c0,-0.761 0.305,-1.45 0.914,-2.064c0.615,-0.621 1.512,-0.931 2.693,-0.931c1.197,0 2.149,0.4 2.857,1.2c0.707,0.8 1.061,1.877 1.061,3.232l0,0.261zm-0.776,-0.824l0,1.207l-4.399,0l0,-1.207l4.399,0z"/>
  <path id="svg_46" fill="black" d="m229.216,132.141l-3.428,-3.942l0.947,-1.029l4.366,4.971l-1.885,0zm-4.84,-5.003l1.494,0l3.126,-3.632l1.795,0l-4.203,4.831l-2.212,0l0,-1.199zm0.768,-3.632l0,8.635l-1.535,0l0,-8.635l1.535,0z"/>
  <path id="svg_47" fill="black" d="m232.228,135.536l0,-12.03l1.387,0l0.065,1.126l0.049,0c0.223,-0.359 0.561,-0.664 1.012,-0.914c0.457,-0.25 0.99,-0.375 1.6,-0.375c1.104,0 1.986,0.411 2.644,1.232c0.664,0.822 0.996,1.861 0.996,3.118l0,0.261c0,1.257 -0.332,2.296 -0.996,3.117c-0.658,0.822 -1.54,1.233 -2.644,1.233c-0.61,0 -1.129,-0.106 -1.559,-0.318c-0.424,-0.218 -0.764,-0.506 -1.02,-0.866l0,4.416l-1.534,0zm1.534,-5.966c0.174,0.381 0.454,0.723 0.84,1.028c0.387,0.299 0.857,0.449 1.412,0.449c0.827,0 1.434,-0.297 1.82,-0.89c0.387,-0.598 0.58,-1.333 0.58,-2.203l0,-0.261c0,-0.871 -0.193,-1.603 -0.58,-2.196c-0.386,-0.598 -0.993,-0.897 -1.82,-0.897c-0.555,0 -1.025,0.152 -1.412,0.457c-0.386,0.299 -0.666,0.639 -0.84,1.02l0,3.493z"/>
  <path id="svg_48" fill="black" d="m241.417,129.594c0,-0.876 0.351,-1.556 1.053,-2.04c0.702,-0.49 1.591,-0.735 2.669,-0.735l1.983,0l0,-0.603c0,-0.512 -0.136,-0.928 -0.408,-1.249c-0.272,-0.321 -0.74,-0.482 -1.404,-0.482c-0.669,0 -1.145,0.136 -1.428,0.408c-0.283,0.267 -0.425,0.577 -0.425,0.931l0,0.041l-1.526,0l0,-0.041c0,-0.686 0.308,-1.284 0.923,-1.796c0.614,-0.511 1.447,-0.767 2.497,-0.767c1.045,0 1.855,0.248 2.432,0.743c0.582,0.495 0.873,1.232 0.873,2.212l0,3.966c0,0.354 0.027,0.688 0.082,1.004c0.054,0.31 0.13,0.585 0.228,0.824l0,0.131l-1.485,0c-0.076,-0.136 -0.147,-0.313 -0.212,-0.531c-0.06,-0.223 -0.098,-0.443 -0.114,-0.661c-0.207,0.354 -0.539,0.669 -0.996,0.947c-0.457,0.272 -1.045,0.408 -1.763,0.408c-0.827,0 -1.532,-0.231 -2.114,-0.694c-0.576,-0.468 -0.865,-1.14 -0.865,-2.016zm1.534,-0.081c0,0.489 0.145,0.873 0.433,1.15c0.288,0.278 0.737,0.417 1.347,0.417c0.609,0 1.159,-0.207 1.648,-0.621c0.495,-0.413 0.743,-0.851 0.743,-1.314l0,-1.232l-1.812,0c-0.778,0 -1.366,0.144 -1.763,0.433c-0.397,0.288 -0.596,0.677 -0.596,1.167z"/>
  <path id="svg_49" fill="black" d="m251.031,123.506l1.534,0l0,3.624l3.902,0l0,-3.624l1.534,0l0,8.635l-1.534,0l0,-3.804l-3.902,0l0,3.804l-1.534,0l0,-8.635z"/>
  <path id="svg_50" fill="black" d="m259.902,127.954l0,-0.261c0,-1.306 0.36,-2.37 1.078,-3.191c0.723,-0.827 1.678,-1.241 2.864,-1.241c1.186,0 2.098,0.386 2.734,1.159c0.642,0.767 0.963,1.809 0.963,3.126l0,0.628l-6.692,0l0,-1.224l5.15,0l0,-0.155c0,-0.637 -0.177,-1.175 -0.531,-1.616c-0.353,-0.441 -0.878,-0.661 -1.575,-0.661c-0.81,0 -1.417,0.307 -1.82,0.922c-0.402,0.61 -0.604,1.36 -0.604,2.253l0,0.261c0,0.887 0.213,1.638 0.637,2.252c0.424,0.615 1.085,0.923 1.983,0.923c0.55,0 1.023,-0.12 1.42,-0.359c0.403,-0.24 0.727,-0.523 0.971,-0.849l0.988,0.791c-0.272,0.408 -0.696,0.789 -1.273,1.143c-0.577,0.354 -1.279,0.53 -2.106,0.53c-1.349,0 -2.386,-0.413 -3.109,-1.24c-0.718,-0.827 -1.078,-1.891 -1.078,-3.191z"/>
  <path id="svg_51" fill="black" d="m272.944,127.954l0,-0.261c0,-1.301 0.357,-2.364 1.069,-3.191c0.718,-0.827 1.703,-1.241 2.955,-1.241c1.159,0 2.037,0.31 2.636,0.931c0.604,0.62 0.906,1.314 0.906,2.081l0,0.04l-1.486,0l0,-0.04c0,-0.463 -0.163,-0.871 -0.489,-1.225c-0.327,-0.353 -0.849,-0.53 -1.567,-0.53c-0.844,0 -1.464,0.307 -1.861,0.922c-0.397,0.61 -0.596,1.36 -0.596,2.253l0,0.261c0,0.887 0.199,1.638 0.596,2.252c0.397,0.615 1.017,0.923 1.861,0.923c0.718,0 1.24,-0.177 1.567,-0.531c0.326,-0.354 0.489,-0.762 0.489,-1.224l0,-0.041l1.486,0l0,0.041c0,0.767 -0.302,1.461 -0.906,2.081c-0.599,0.62 -1.477,0.93 -2.636,0.93c-1.252,0 -2.237,-0.413 -2.955,-1.24c-0.712,-0.827 -1.069,-1.891 -1.069,-3.191z"/>
  <path id="svg_52" fill="black" d="m282.24,132.141l0,-8.635l3.73,0c0.957,0 1.711,0.193 2.26,0.579c0.555,0.381 0.833,0.955 0.833,1.722c0,0.49 -0.147,0.898 -0.441,1.225c-0.288,0.326 -0.677,0.541 -1.167,0.644l0,0.025c0.598,0.087 1.066,0.299 1.404,0.636c0.337,0.338 0.506,0.768 0.506,1.29c0,0.794 -0.289,1.412 -0.865,1.853c-0.577,0.44 -1.339,0.661 -2.286,0.661l-3.974,0zm1.534,-4.987l2.196,0c0.544,0 0.935,-0.111 1.175,-0.335c0.245,-0.228 0.367,-0.535 0.367,-0.922c0,-0.386 -0.122,-0.68 -0.367,-0.881c-0.24,-0.201 -0.631,-0.305 -1.175,-0.31l-2.196,0l0,2.448zm0,3.779l2.44,0c0.55,0 0.955,-0.117 1.216,-0.351c0.262,-0.24 0.392,-0.558 0.392,-0.955c0,-0.386 -0.13,-0.696 -0.392,-0.93c-0.255,-0.234 -0.661,-0.351 -1.216,-0.351l-2.44,0l0,2.587z"/>
  <path id="svg_53" fill="black" d="m290.915,127.954l0,-0.261c0,-1.301 0.373,-2.364 1.118,-3.191c0.746,-0.827 1.741,-1.241 2.987,-1.241c1.246,0 2.242,0.414 2.987,1.241c0.746,0.827 1.119,1.89 1.119,3.191l0,0.261c0,1.3 -0.373,2.364 -1.119,3.191c-0.745,0.827 -1.741,1.24 -2.987,1.24c-1.246,0 -2.241,-0.413 -2.987,-1.24c-0.745,-0.827 -1.118,-1.891 -1.118,-3.191zm1.567,-0.261l0,0.261c0,0.887 0.212,1.638 0.637,2.252c0.43,0.615 1.063,0.923 1.901,0.923c0.838,0 1.469,-0.308 1.894,-0.923c0.43,-0.614 0.645,-1.365 0.645,-2.252l0,-0.261c0,-0.887 -0.215,-1.638 -0.645,-2.253c-0.425,-0.615 -1.056,-0.922 -1.894,-0.922c-0.838,0 -1.471,0.307 -1.901,0.922c-0.425,0.615 -0.637,1.366 -0.637,2.253z"/>
  <path id="svg_54" fill="black" d="m300.513,127.954l0,-0.261c0,-1.306 0.359,-2.37 1.077,-3.191c0.724,-0.827 1.679,-1.241 2.865,-1.241c1.186,0 2.097,0.386 2.734,1.159c0.642,0.767 0.963,1.809 0.963,3.126l0,0.628l-6.692,0l0,-1.224l5.149,0l0,-0.155c0,-0.637 -0.176,-1.175 -0.53,-1.616c-0.354,-0.441 -0.879,-0.661 -1.575,-0.661c-0.811,0 -1.418,0.307 -1.82,0.922c-0.403,0.61 -0.604,1.36 -0.604,2.253l0,0.261c0,0.887 0.212,1.638 0.636,2.252c0.425,0.615 1.086,0.923 1.984,0.923c0.549,0 1.023,-0.12 1.42,-0.359c0.402,-0.24 0.726,-0.523 0.971,-0.849l0.987,0.791c-0.272,0.408 -0.696,0.789 -1.273,1.143c-0.576,0.354 -1.278,0.53 -2.105,0.53c-1.35,0 -2.386,-0.413 -3.11,-1.24c-0.718,-0.827 -1.077,-1.891 -1.077,-3.191z"/>
  <path id="svg_55" fill="black" d="m309.988,123.506l5.599,0l0,1.2l-4.065,0l0,7.435l-1.534,0l0,-8.635z"/>
  <path id="svg_56" fill="black" d="m316.542,127.954l0,-0.261c0,-1.301 0.372,-2.364 1.118,-3.191c0.745,-0.827 1.741,-1.241 2.987,-1.241c1.246,0 2.241,0.414 2.987,1.241c0.745,0.827 1.118,1.89 1.118,3.191l0,0.261c0,1.3 -0.373,2.364 -1.118,3.191c-0.746,0.827 -1.741,1.24 -2.987,1.24c-1.246,0 -2.242,-0.413 -2.987,-1.24c-0.746,-0.827 -1.118,-1.891 -1.118,-3.191zm1.567,-0.261l0,0.261c0,0.887 0.212,1.638 0.636,2.252c0.43,0.615 1.064,0.923 1.902,0.923c0.838,0 1.469,-0.308 1.893,-0.923c0.43,-0.614 0.645,-1.365 0.645,-2.252l0,-0.261c0,-0.887 -0.215,-1.638 -0.645,-2.253c-0.424,-0.615 -1.055,-0.922 -1.893,-0.922c-0.838,0 -1.472,0.307 -1.902,0.922c-0.424,0.615 -0.636,1.366 -0.636,2.253z"/>
  <path id="svg_57" fill="black" d="m330.22,127.954l0,-0.261c0,-1.301 0.356,-2.364 1.069,-3.191c0.718,-0.827 1.703,-1.241 2.954,-1.241c1.159,0 2.038,0.31 2.637,0.931c0.603,0.62 0.905,1.314 0.905,2.081l0,0.04l-1.485,0l0,-0.04c0,-0.463 -0.163,-0.871 -0.49,-1.225c-0.326,-0.353 -0.848,-0.53 -1.567,-0.53c-0.843,0 -1.463,0.307 -1.86,0.922c-0.397,0.61 -0.596,1.36 -0.596,2.253l0,0.261c0,0.887 0.199,1.638 0.596,2.252c0.397,0.615 1.017,0.923 1.86,0.923c0.719,0 1.241,-0.177 1.567,-0.531c0.327,-0.354 0.49,-0.762 0.49,-1.224l0,-0.041l1.485,0l0,0.041c0,0.767 -0.302,1.461 -0.905,2.081c-0.599,0.62 -1.478,0.93 -2.637,0.93c-1.251,0 -2.236,-0.413 -2.954,-1.24c-0.713,-0.827 -1.069,-1.891 -1.069,-3.191z"/>
  <path id="svg_58" fill="black" d="m339.516,132.141l0,-8.635l2.113,0l2.473,5.95c0.131,0.315 0.215,0.535 0.253,0.661c0.038,0.125 0.074,0.253 0.106,0.383l0.082,0c0.027,-0.13 0.057,-0.258 0.09,-0.383c0.038,-0.126 0.122,-0.34 0.253,-0.645l2.489,-5.966l2.073,0l0,8.635l-1.469,0l0,-5.876c0,-0.327 0.003,-0.558 0.008,-0.694c0.011,-0.142 0.022,-0.267 0.033,-0.376l-0.074,0c-0.027,0.109 -0.06,0.234 -0.098,0.376c-0.038,0.136 -0.122,0.359 -0.253,0.669l-2.464,5.901l-1.347,0l-2.473,-5.925c-0.114,-0.283 -0.193,-0.496 -0.237,-0.637c-0.038,-0.147 -0.07,-0.275 -0.097,-0.384l-0.082,0c0.011,0.109 0.019,0.232 0.024,0.368c0.011,0.136 0.017,0.351 0.017,0.644l0,5.934l-1.42,0z"/>
  <path id="svg_59" fill="black" d="m351.398,129.594c0,-0.876 0.351,-1.556 1.053,-2.04c0.702,-0.49 1.592,-0.735 2.669,-0.735l1.983,0l0,-0.603c0,-0.512 -0.136,-0.928 -0.408,-1.249c-0.272,-0.321 -0.74,-0.482 -1.404,-0.482c-0.669,0 -1.145,0.136 -1.428,0.408c-0.283,0.267 -0.424,0.577 -0.424,0.931l0,0.041l-1.526,0l0,-0.041c0,-0.686 0.307,-1.284 0.922,-1.796c0.615,-0.511 1.447,-0.767 2.497,-0.767c1.045,0 1.856,0.248 2.432,0.743c0.582,0.495 0.874,1.232 0.874,2.212l0,3.966c0,0.354 0.027,0.688 0.081,1.004c0.055,0.31 0.131,0.585 0.229,0.824l0,0.131l-1.486,0c-0.076,-0.136 -0.147,-0.313 -0.212,-0.531c-0.06,-0.223 -0.098,-0.443 -0.114,-0.661c-0.207,0.354 -0.539,0.669 -0.996,0.947c-0.457,0.272 -1.044,0.408 -1.763,0.408c-0.827,0 -1.531,-0.231 -2.113,-0.694c-0.577,-0.468 -0.866,-1.14 -0.866,-2.016zm1.535,-0.081c0,0.489 0.144,0.873 0.432,1.15c0.289,0.278 0.738,0.417 1.347,0.417c0.609,0 1.159,-0.207 1.649,-0.621c0.495,-0.413 0.742,-0.851 0.742,-1.314l0,-1.232l-1.812,0c-0.778,0 -1.365,0.144 -1.762,0.433c-0.398,0.288 -0.596,0.677 -0.596,1.167z"/>
  <path id="svg_60" fill="black" d="m361.012,135.536l0,-12.03l1.388,0l0.065,1.126l0.049,0c0.223,-0.359 0.561,-0.664 1.012,-0.914c0.457,-0.25 0.99,-0.375 1.6,-0.375c1.104,0 1.986,0.411 2.644,1.232c0.664,0.822 0.996,1.861 0.996,3.118l0,0.261c0,1.257 -0.332,2.296 -0.996,3.117c-0.658,0.822 -1.54,1.233 -2.644,1.233c-0.61,0 -1.129,-0.106 -1.559,-0.318c-0.424,-0.218 -0.765,-0.506 -1.02,-0.866l0,4.416l-1.535,0zm1.535,-5.966c0.174,0.381 0.454,0.723 0.84,1.028c0.387,0.299 0.857,0.449 1.412,0.449c0.827,0 1.434,-0.297 1.82,-0.89c0.387,-0.598 0.58,-1.333 0.58,-2.203l0,-0.261c0,-0.871 -0.193,-1.603 -0.58,-2.196c-0.386,-0.598 -0.993,-0.897 -1.82,-0.897c-0.555,0 -1.025,0.152 -1.412,0.457c-0.386,0.299 -0.666,0.639 -0.84,1.02l0,3.493z"/>
  <path id="svg_61" fill="black" d="m369.729,124.706l0,-1.2l6.969,0l0,1.2l-2.717,0l0,7.435l-1.535,0l0,-7.435l-2.717,0z"/>
  <path id="svg_62" fill="black" d="m378.265,131.292c0,-0.289 0.093,-0.533 0.278,-0.735c0.185,-0.201 0.449,-0.302 0.792,-0.302c0.348,0 0.614,0.101 0.799,0.302c0.185,0.202 0.278,0.444 0.278,0.727c0,0.288 -0.093,0.533 -0.278,0.734c-0.185,0.202 -0.451,0.302 -0.799,0.302c-0.343,0 -0.607,-0.1 -0.792,-0.302c-0.185,-0.201 -0.278,-0.443 -0.278,-0.726z"/>
  <path id="svg_63" fill="black" d="m383.032,131.292c0,-0.289 0.092,-0.533 0.277,-0.735c0.185,-0.201 0.449,-0.302 0.792,-0.302c0.348,0 0.614,0.101 0.799,0.302c0.185,0.202 0.278,0.444 0.278,0.727c0,0.288 -0.093,0.533 -0.278,0.734c-0.185,0.202 -0.451,0.302 -0.799,0.302c-0.343,0 -0.607,-0.1 -0.792,-0.302c-0.185,-0.201 -0.277,-0.443 -0.277,-0.726z"/>
  <path id="svg_64" fill="black" d="m387.798,131.292c0,-0.289 0.092,-0.533 0.277,-0.735c0.185,-0.201 0.449,-0.302 0.792,-0.302c0.348,0 0.615,0.101 0.8,0.302c0.185,0.202 0.277,0.444 0.277,0.727c0,0.288 -0.092,0.533 -0.277,0.734c-0.185,0.202 -0.452,0.302 -0.8,0.302c-0.343,0 -0.607,-0.1 -0.792,-0.302c-0.185,-0.201 -0.277,-0.443 -0.277,-0.726z"/>
  <path id="svg_65" fill="black" d="m57.3359,77.947l0,-0.083l1.3743,0l0,0.083c0,0.599 0.2094,1.048 0.6284,1.347c0.4235,0.299 1.0151,0.449 1.7748,0.449c0.7596,0 1.342,-0.152 1.7471,-0.456c0.4051,-0.308 0.6077,-0.711 0.6077,-1.208c0,-0.452 -0.1911,-0.813 -0.5732,-1.085c-0.3775,-0.271 -1.1256,-0.557 -2.2443,-0.856c-1.1372,-0.308 -1.9382,-0.674 -2.4032,-1.098c-0.465,-0.428 -0.6975,-1.038 -0.6975,-1.83c0,-0.787 0.3085,-1.443 0.9254,-1.968c0.6169,-0.525 1.4732,-0.787 2.5689,-0.787c1.0957,0 1.9658,0.28 2.6103,0.842c0.6446,0.557 0.9668,1.255 0.9668,2.093l0,0.082l-1.3673,0l0,-0.082c0,-0.525 -0.1864,-0.949 -0.5593,-1.271c-0.3683,-0.327 -0.9185,-0.49 -1.6505,-0.49c-0.732,0 -1.273,0.138 -1.6228,0.414c-0.3453,0.276 -0.518,0.638 -0.518,1.084c0,0.447 0.1773,0.797 0.5318,1.05c0.3545,0.253 1.0588,0.52 2.1131,0.801c1.1371,0.304 1.9658,0.686 2.4861,1.146c0.5248,0.461 0.7872,1.11 0.7872,1.948c0,0.833 -0.3338,1.517 -1.0013,2.051c-0.663,0.534 -1.5653,0.801 -2.707,0.801c-1.1418,0 -2.0579,-0.267 -2.7485,-0.801c-0.686,-0.534 -1.029,-1.26 -1.029,-2.176z"/>
  <path id="svg_66" fill="black" d="m65.8197,77.126l0,-0.221c0,-1.115 0.3131,-2.024 0.9392,-2.728c0.6261,-0.709 1.4548,-1.064 2.486,-1.064c1.0313,0 1.8254,0.332 2.3825,0.995c0.5571,0.658 0.8356,1.549 0.8356,2.672l0,0.553l-5.8215,0l0,-1.057l4.4818,0l0,-0.076c0,-0.561 -0.1496,-1.033 -0.4489,-1.415c-0.2992,-0.387 -0.7665,-0.581 -1.4018,-0.581c-0.6952,0 -1.22,0.263 -1.5745,0.788c-0.3499,0.52 -0.5249,1.158 -0.5249,1.913l0,0.221c0,0.759 0.1842,1.401 0.5525,1.926c0.3729,0.52 0.9507,0.781 1.7333,0.781c0.4788,0 0.8909,-0.102 1.2361,-0.304c0.3499,-0.203 0.6308,-0.445 0.8425,-0.725l0.8563,0.704c-0.2348,0.345 -0.6031,0.668 -1.1049,0.967c-0.5018,0.299 -1.1118,0.449 -1.83,0.449c-1.174,0 -2.074,-0.353 -2.7001,-1.057c-0.6261,-0.709 -0.9392,-1.623 -0.9392,-2.741z"/>
  <path id="svg_67" fill="black" d="m73.889,80.717l0,-7.396l1.202,0l0.062,0.966l0.034,0c0.281,-0.35 0.62,-0.621 1.016,-0.815c0.395,-0.193 0.835,-0.29 1.319,-0.29c0.764,0 1.371,0.217 1.823,0.65c0.455,0.432 0.683,1.155 0.683,2.168l0,4.717l-1.326,0l0,-4.731c0,-0.598 -0.138,-1.027 -0.414,-1.284c-0.272,-0.263 -0.661,-0.394 -1.167,-0.394c-0.428,0 -0.806,0.115 -1.133,0.345c-0.326,0.226 -0.584,0.518 -0.773,0.877l0,5.187l-1.326,0z"/>
  <path id="svg_68" fill="black" d="m81.434,77.126l0,-0.221c0,-1.073 0.288,-1.962 0.863,-2.666c0.575,-0.704 1.342,-1.057 2.3,-1.057c0.529,0 0.98,0.092 1.353,0.277c0.378,0.184 0.679,0.43 0.905,0.739l0,-4.089l1.326,0l0,10.608l-1.209,0l-0.055,-0.967l-0.035,0c-0.198,0.308 -0.497,0.571 -0.897,0.787c-0.396,0.212 -0.859,0.318 -1.388,0.318c-0.958,0 -1.725,-0.35 -2.3,-1.05c-0.575,-0.704 -0.863,-1.598 -0.863,-2.679zm1.36,0.006c0,0.742 0.168,1.365 0.504,1.872c0.336,0.502 0.866,0.753 1.589,0.753c0.483,0 0.893,-0.129 1.229,-0.387c0.341,-0.258 0.587,-0.55 0.739,-0.877l0,-2.949c-0.152,-0.327 -0.398,-0.619 -0.739,-0.877c-0.336,-0.258 -0.746,-0.387 -1.229,-0.387c-0.723,0 -1.253,0.254 -1.589,0.76c-0.336,0.506 -0.504,1.128 -0.504,1.865l0,0.227z"/>
  <path id="svg_69" fill="black" d="m89.614,78.541l1.326,0l0,0.035c0,0.419 0.161,0.736 0.483,0.953c0.327,0.212 0.755,0.317 1.284,0.317c0.534,0 0.953,-0.101 1.257,-0.303c0.304,-0.208 0.456,-0.472 0.456,-0.795c0,-0.326 -0.122,-0.577 -0.366,-0.752c-0.239,-0.175 -0.773,-0.353 -1.602,-0.532c-0.824,-0.18 -1.466,-0.442 -1.927,-0.787c-0.456,-0.35 -0.683,-0.829 -0.683,-1.437c0,-0.607 0.255,-1.114 0.766,-1.519c0.516,-0.405 1.206,-0.608 2.072,-0.608c0.875,0 1.572,0.205 2.092,0.615c0.525,0.405 0.787,0.948 0.787,1.63l0,0.034l-1.318,0l0,-0.048c0,-0.359 -0.129,-0.642 -0.387,-0.85c-0.253,-0.207 -0.647,-0.31 -1.181,-0.31c-0.53,0 -0.916,0.094 -1.16,0.283c-0.24,0.189 -0.359,0.421 -0.359,0.697c0,0.286 0.131,0.511 0.393,0.677c0.263,0.161 0.806,0.332 1.63,0.511c0.829,0.18 1.462,0.449 1.899,0.808c0.442,0.355 0.663,0.859 0.663,1.512c0,0.659 -0.253,1.2 -0.76,1.623c-0.501,0.419 -1.259,0.629 -2.272,0.629c-1.008,0 -1.777,-0.214 -2.306,-0.643c-0.525,-0.428 -0.787,-0.996 -0.787,-1.705l0,-0.035z"/>
  <path id="svg_70" fill="black" d="m96.778,78.541c0,-0.75 0.304,-1.335 0.912,-1.754c0.612,-0.419 1.388,-0.628 2.327,-0.628l1.734,0l0,-0.546c0,-0.423 -0.12,-0.769 -0.36,-1.036c-0.239,-0.267 -0.649,-0.4 -1.229,-0.4c-0.584,0 -1.001,0.115 -1.25,0.345c-0.248,0.23 -0.373,0.497 -0.373,0.801l0,0.035l-1.319,0l0,-0.035c0,-0.589 0.267,-1.105 0.802,-1.547c0.534,-0.442 1.259,-0.663 2.175,-0.663c0.911,0 1.618,0.21 2.12,0.629c0.506,0.419 0.759,1.043 0.759,1.871l0,3.446c0,0.299 0.023,0.583 0.07,0.85c0.046,0.262 0.112,0.494 0.2,0.697l0,0.111l-1.285,0c-0.069,-0.12 -0.131,-0.274 -0.186,-0.463c-0.051,-0.189 -0.083,-0.375 -0.097,-0.56c-0.179,0.304 -0.469,0.574 -0.87,0.808c-0.4,0.235 -0.916,0.353 -1.547,0.353c-0.713,0 -1.323,-0.198 -1.83,-0.594c-0.502,-0.401 -0.753,-0.974 -0.753,-1.72zm1.326,-0.069c0,0.415 0.127,0.739 0.38,0.974c0.253,0.23 0.645,0.345 1.174,0.345c0.534,0 1.015,-0.175 1.443,-0.525c0.433,-0.35 0.65,-0.72 0.65,-1.111l0,-1.043l-1.589,0c-0.676,0 -1.19,0.124 -1.54,0.373c-0.345,0.244 -0.518,0.573 -0.518,0.987z"/>
  <path id="svg_71" fill="black" d="m104.192,83.589l0,-1.132c0.124,0.037 0.262,0.067 0.414,0.09c0.152,0.023 0.299,0.034 0.442,0.034c0.336,0 0.619,-0.106 0.85,-0.318c0.234,-0.207 0.499,-0.739 0.794,-1.595l0,-0.007l-2.804,-7.34l1.305,0l1.782,4.834c0.064,0.184 0.124,0.363 0.179,0.538c0.056,0.17 0.102,0.336 0.139,0.497l0.041,0c0.037,-0.161 0.083,-0.327 0.138,-0.497c0.06,-0.175 0.122,-0.354 0.187,-0.538l1.664,-4.834l1.257,0l-3.06,8.362c-0.239,0.645 -0.557,1.147 -0.953,1.506c-0.391,0.359 -0.874,0.538 -1.45,0.538c-0.189,0 -0.357,-0.011 -0.504,-0.034c-0.147,-0.023 -0.288,-0.058 -0.421,-0.104z"/>
  <path id="svg_72" fill="black" d="m113.743,80.717l3.901,-10.124l1.271,0l3.902,10.124l-1.437,0l-2.803,-7.548c-0.06,-0.162 -0.113,-0.316 -0.159,-0.463c-0.046,-0.152 -0.088,-0.306 -0.124,-0.463l-0.069,0c-0.037,0.157 -0.079,0.311 -0.125,0.463c-0.046,0.147 -0.099,0.301 -0.159,0.463l-2.831,7.548l-1.367,0zm1.678,-2.597l0.421,-1.139l4.855,0.006l0.421,1.14l-5.697,-0.007z"/>
  <path id="svg_73" fill="black" d="m123.697,83.589l0,-10.268l1.202,0l0.062,0.966l0.035,0c0.193,-0.304 0.488,-0.564 0.884,-0.78c0.4,-0.216 0.867,-0.325 1.401,-0.325c0.958,0 1.725,0.353 2.3,1.057c0.576,0.704 0.863,1.593 0.863,2.666l0,0.221c0,1.081 -0.287,1.975 -0.863,2.679c-0.575,0.7 -1.342,1.05 -2.3,1.05c-0.534,0 -0.987,-0.092 -1.36,-0.277c-0.373,-0.184 -0.672,-0.43 -0.898,-0.739l0,3.75l-1.326,0zm1.326,-5.096c0.152,0.327 0.396,0.619 0.732,0.877c0.341,0.258 0.753,0.387 1.236,0.387c0.719,0 1.246,-0.251 1.582,-0.753c0.341,-0.507 0.511,-1.133 0.511,-1.878l0,-0.221c0,-0.737 -0.17,-1.359 -0.511,-1.865c-0.336,-0.506 -0.863,-0.76 -1.582,-0.76c-0.483,0 -0.895,0.129 -1.236,0.387c-0.336,0.258 -0.58,0.55 -0.732,0.877l0,2.949z"/>
  <path id="svg_74" fill="black" d="m131.912,83.589l0,-10.268l1.201,0l0.063,0.966l0.034,0c0.194,-0.304 0.488,-0.564 0.884,-0.78c0.401,-0.216 0.868,-0.325 1.402,-0.325c0.958,0 1.724,0.353 2.3,1.057c0.575,0.704 0.863,1.593 0.863,2.666l0,0.221c0,1.081 -0.288,1.975 -0.863,2.679c-0.576,0.7 -1.342,1.05 -2.3,1.05c-0.534,0 -0.988,-0.092 -1.36,-0.277c-0.373,-0.184 -0.673,-0.43 -0.898,-0.739l0,3.75l-1.326,0zm1.326,-5.096c0.152,0.327 0.396,0.619 0.732,0.877c0.34,0.258 0.753,0.387 1.236,0.387c0.718,0 1.245,-0.251 1.581,-0.753c0.341,-0.507 0.511,-1.133 0.511,-1.878l0,-0.221c0,-0.737 -0.17,-1.359 -0.511,-1.865c-0.336,-0.506 -0.863,-0.76 -1.581,-0.76c-0.483,0 -0.896,0.129 -1.236,0.387c-0.336,0.258 -0.58,0.55 -0.732,0.877l0,2.949z"/>
  <path id="svg_75" fill="black" d="m153.734,77.121l0,-0.221c0,-1.11 0.311,-2.019 0.933,-2.728c0.621,-0.709 1.477,-1.064 2.569,-1.064c1.008,0 1.772,0.267 2.292,0.801c0.525,0.53 0.787,1.121 0.787,1.775l0,0.035l-1.284,0l0,-0.035c0,-0.391 -0.143,-0.734 -0.428,-1.029c-0.286,-0.299 -0.741,-0.449 -1.367,-0.449c-0.737,0 -1.278,0.26 -1.623,0.781c-0.346,0.52 -0.518,1.158 -0.518,1.913l0,0.227c0,0.755 0.172,1.393 0.518,1.913c0.345,0.521 0.886,0.781 1.623,0.781c0.626,0 1.081,-0.148 1.367,-0.442c0.285,-0.3 0.428,-0.645 0.428,-1.036l0,-0.035l1.284,0l0,0.042c0,0.653 -0.262,1.245 -0.787,1.775c-0.52,0.529 -1.284,0.794 -2.292,0.794c-1.092,0 -1.948,-0.353 -2.569,-1.057c-0.622,-0.709 -0.933,-1.623 -0.933,-2.741z"/>
  <path id="svg_76" fill="black" d="m161.12,77.121l0,-0.221c0,-1.115 0.313,-2.024 0.939,-2.728c0.626,-0.709 1.455,-1.064 2.486,-1.064c1.032,0 1.826,0.332 2.383,0.995c0.557,0.658 0.835,1.549 0.835,2.672l0,0.553l-5.821,0l0,-1.057l4.482,0l0,-0.076c0,-0.561 -0.15,-1.033 -0.449,-1.415c-0.299,-0.387 -0.767,-0.581 -1.402,-0.581c-0.695,0 -1.22,0.263 -1.575,0.788c-0.349,0.52 -0.524,1.158 -0.524,1.913l0,0.221c0,0.759 0.184,1.401 0.552,1.926c0.373,0.52 0.951,0.781 1.733,0.781c0.479,0 0.891,-0.102 1.237,-0.304c0.349,-0.203 0.63,-0.445 0.842,-0.725l0.856,0.704c-0.234,0.345 -0.603,0.668 -1.105,0.967c-0.501,0.299 -1.111,0.449 -1.83,0.449c-1.174,0 -2.074,-0.353 -2.7,-1.057c-0.626,-0.709 -0.939,-1.623 -0.939,-2.741z"/>
  <path id="svg_77" fill="black" d="m169.107,80.711l0,-7.396l1.319,0l0,4.6c0,0.138 -0.003,0.297 -0.007,0.476c0,0.175 -0.002,0.332 -0.007,0.47l0.062,0c0.065,-0.115 0.136,-0.242 0.214,-0.38c0.083,-0.138 0.17,-0.281 0.263,-0.428l2.99,-4.738l1.339,0l0,7.396l-1.312,0l0,-4.592c0,-0.138 0.003,-0.297 0.007,-0.476c0.005,-0.184 0.009,-0.346 0.014,-0.484l-0.076,0c-0.06,0.115 -0.131,0.247 -0.214,0.394c-0.078,0.143 -0.163,0.285 -0.256,0.428l-2.997,4.73l-1.339,0zm3.1,-9.667c0.341,0 0.622,-0.093 0.843,-0.277c0.221,-0.184 0.407,-0.492 0.559,-0.925l1.008,0.594c-0.234,0.571 -0.561,0.99 -0.98,1.257c-0.419,0.262 -0.896,0.393 -1.43,0.393c-0.538,0 -1.015,-0.129 -1.429,-0.386c-0.414,-0.263 -0.741,-0.684 -0.981,-1.264l1.009,-0.608c0.156,0.451 0.343,0.767 0.559,0.946c0.216,0.18 0.497,0.27 0.842,0.27z"/>
  <path id="svg_78" fill="black" d="m178.364,75.373c0,0.599 0.113,1.018 0.338,1.257c0.231,0.235 0.62,0.352 1.167,0.352c0.456,0 0.859,-0.032 1.209,-0.096c0.354,-0.069 0.753,-0.159 1.195,-0.27l0,1.057c-0.419,0.092 -0.811,0.177 -1.174,0.256c-0.364,0.073 -0.838,0.11 -1.423,0.11c-0.925,0 -1.597,-0.223 -2.016,-0.67c-0.415,-0.446 -0.622,-1.112 -0.622,-1.996l0,-2.058l1.326,0l0,2.058zm4.572,-2.058l0,7.396l-1.326,0l0,-7.396l1.326,0z"/>
  <path id="svg_79" fill="black" d="m184.445,78.536c0,-0.75 0.303,-1.335 0.911,-1.754c0.612,-0.419 1.388,-0.628 2.327,-0.628l1.734,0l0,-0.546c0,-0.423 -0.12,-0.769 -0.359,-1.036c-0.24,-0.267 -0.65,-0.4 -1.23,-0.4c-0.584,0 -1.001,0.115 -1.25,0.345c-0.248,0.23 -0.373,0.497 -0.373,0.801l0,0.035l-1.318,0l0,-0.035c0,-0.589 0.267,-1.105 0.801,-1.547c0.534,-0.442 1.259,-0.663 2.175,-0.663c0.911,0 1.618,0.21 2.12,0.629c0.506,0.419 0.76,1.043 0.76,1.871l0,3.446c0,0.299 0.023,0.583 0.069,0.85c0.046,0.262 0.112,0.494 0.2,0.697l0,0.11l-1.285,0c-0.069,-0.119 -0.131,-0.273 -0.186,-0.462c-0.051,-0.189 -0.083,-0.375 -0.097,-0.56c-0.179,0.304 -0.469,0.574 -0.87,0.808c-0.4,0.235 -0.916,0.353 -1.547,0.353c-0.713,0 -1.323,-0.198 -1.83,-0.594c-0.502,-0.401 -0.752,-0.974 -0.752,-1.72zm1.325,-0.069c0,0.414 0.127,0.739 0.38,0.974c0.253,0.23 0.645,0.345 1.174,0.345c0.534,0 1.015,-0.175 1.444,-0.525c0.432,-0.35 0.649,-0.72 0.649,-1.112l0,-1.042l-1.589,0c-0.676,0 -1.19,0.124 -1.54,0.373c-0.345,0.244 -0.518,0.573 -0.518,0.987z"/>
  <path id="svg_80" fill="black" d="m192.183,77.121l0,-0.221c0,-1.11 0.31,-2.019 0.932,-2.728c0.621,-0.709 1.478,-1.064 2.569,-1.064c1.008,0 1.772,0.267 2.292,0.801c0.525,0.53 0.788,1.121 0.788,1.775l0,0.035l-1.285,0l0,-0.035c0,-0.391 -0.143,-0.734 -0.428,-1.029c-0.285,-0.299 -0.741,-0.449 -1.367,-0.449c-0.737,0 -1.278,0.26 -1.623,0.781c-0.345,0.52 -0.518,1.158 -0.518,1.913l0,0.227c0,0.755 0.173,1.393 0.518,1.913c0.345,0.521 0.886,0.781 1.623,0.781c0.626,0 1.082,-0.148 1.367,-0.442c0.285,-0.3 0.428,-0.645 0.428,-1.036l0,-0.035l1.285,0l0,0.042c0,0.653 -0.263,1.245 -0.788,1.775c-0.52,0.529 -1.284,0.794 -2.292,0.794c-1.091,0 -1.948,-0.353 -2.569,-1.057c-0.622,-0.709 -0.932,-1.623 -0.932,-2.741z"/>
  <path id="svg_81" fill="#6B7280" d="m206,73.241c0.222,-0.277 0.627,-0.322 0.904,-0.1l2.813,2.25l2.812,-2.25c0.277,-0.222 0.682,-0.177 0.904,0.1c0.222,0.278 0.177,0.682 -0.101,0.904l-3.615,2.893l-3.616,-2.893c-0.278,-0.222 -0.323,-0.626 -0.101,-0.904z" clip-rule="evenodd" fill-rule="evenodd"/>
  <path id="svg_82" fill="black" d="m148.001,75.567c0,0.71 -0.576,1.286 -1.286,1.286c-0.71,0 -1.285,-0.576 -1.285,-1.286c0,-0.71 0.575,-1.286 1.285,-1.286c0.71,0 1.286,0.576 1.286,1.286z"/>
  <path id="svg_83" fill="#A12141" d="m403.859,107.97c0,-5.04 0,-7.56 0.981,-9.486c0.863,-1.693 2.24,-3.07 3.933,-3.933c1.926,-0.981 4.446,-0.981 9.486,-0.981l14.915,0c5.04,0 7.56,0 9.486,0.981c1.693,0.863 3.07,2.24 3.933,3.933c0.981,1.926 0.981,4.446 0.981,9.486l0,14.915c0,5.04 0,7.56 -0.981,9.486c-0.863,1.693 -2.24,3.07 -3.933,3.933c-1.926,0.981 -4.446,0.981 -9.486,0.981l-14.915,0c-5.04,0 -7.56,0 -9.486,-0.981c-1.693,-0.863 -3.07,-2.24 -3.933,-3.933c-0.981,-1.926 -0.981,-4.446 -0.981,-9.486l0,-14.915z"/>
  <path id="svg_84" fill="white" d="m427.174,124.851l0,-3.41c0,-0.246 -0.141,-0.492 -0.352,-0.597l-2.954,-1.723c-0.211,-0.141 -0.492,-0.141 -0.703,0l-2.954,1.723c-0.211,0.14 -0.352,0.351 -0.352,0.597l0,3.41c0,0.246 0.141,0.493 0.352,0.598l2.954,1.723c0.211,0.14 0.492,0.14 0.703,0l2.954,-1.723c0.211,-0.105 0.352,-0.352 0.352,-0.598z"/>
  <path id="svg_85" fill="white" d="m422.779,117.476l0,-3.41c0,-0.246 -0.141,-0.492 -0.352,-0.597l-2.953,-1.723c-0.211,-0.141 -0.493,-0.141 -0.704,0l-2.989,1.688c-0.211,0.14 -0.351,0.351 -0.351,0.597l0,3.41c0,0.246 0.14,0.492 0.351,0.598l2.954,1.722c0.211,0.141 0.492,0.141 0.703,0l2.954,-1.722c0.246,-0.106 0.387,-0.317 0.387,-0.563z"/>
  <path id="svg_86" fill="white" d="m431.572,117.476l0,-3.41c0,-0.246 -0.141,-0.492 -0.352,-0.597l-2.953,-1.723c-0.211,-0.141 -0.493,-0.141 -0.704,0l-2.954,1.723c-0.211,0.14 -0.351,0.351 -0.351,0.597l0,3.41c0,0.246 0.14,0.493 0.351,0.598l2.954,1.723c0.211,0.14 0.493,0.14 0.704,0l2.953,-1.723c0.247,-0.141 0.352,-0.352 0.352,-0.598z"/>
  <path id="svg_87" fill="white" d="m435.998,110.055l0,-3.411c0,-0.246 -0.141,-0.492 -0.352,-0.597l-2.989,-1.723c-0.211,-0.14 -0.492,-0.14 -0.703,0l-2.954,1.723c-0.211,0.14 -0.352,0.351 -0.352,0.597l0,3.411c0,0.246 0.141,0.492 0.352,0.597l2.954,1.723c0.211,0.14 0.492,0.14 0.703,0l2.954,-1.723c0.246,-0.105 0.387,-0.351 0.387,-0.597z"/>
  <path id="svg_88" fill="#6B7280" d="m42.2605,81.662l0,-2.281c0,-0.165 -0.0941,-0.33 -0.2352,-0.4l-1.9762,-1.153c-0.1411,-0.094 -0.3293,-0.094 -0.4705,0l-1.9762,1.153c-0.1411,0.094 -0.2352,0.235 -0.2352,0.4l0,2.281c0,0.165 0.0941,0.329 0.2352,0.4l1.9762,1.152c0.1412,0.094 0.3294,0.094 0.4705,0l1.9762,-1.152c0.1411,-0.071 0.2352,-0.235 0.2352,-0.4z"/>
  <path id="svg_89" fill="#6B7280" d="m39.3231,76.725l0,-2.282c0,-0.164 -0.0941,-0.329 -0.2352,-0.4l-1.9762,-1.152c-0.1412,-0.094 -0.3294,-0.094 -0.4705,0l-1.9997,1.129c-0.1411,0.094 -0.2353,0.235 -0.2353,0.4l0,2.281c0,0.165 0.0942,0.329 0.2353,0.4l1.9762,1.152c0.1411,0.094 0.3293,0.094 0.4705,0l1.9761,-1.152c0.1647,-0.071 0.2588,-0.212 0.2588,-0.376z"/>
  <path id="svg_90" fill="#6B7280" d="m45.2058,76.725l0,-2.282c0,-0.164 -0.0941,-0.329 -0.2352,-0.4l-1.9762,-1.152c-0.1411,-0.094 -0.3293,-0.094 -0.4705,0l-1.9761,1.152c-0.1412,0.094 -0.2353,0.236 -0.2353,0.4l0,2.282c0,0.164 0.0941,0.329 0.2353,0.399l1.9761,1.153c0.1412,0.094 0.3294,0.094 0.4705,0l1.9762,-1.153c0.1647,-0.094 0.2352,-0.235 0.2352,-0.399z"/>
  <path id="svg_91" fill="#6B7280" d="m48.1669,71.764l0,-2.282c0,-0.164 -0.0941,-0.329 -0.2353,-0.4l-1.9997,-1.152c-0.1411,-0.094 -0.3293,-0.094 -0.4705,0l-1.9761,1.152c-0.1412,0.094 -0.2353,0.236 -0.2353,0.4l0,2.282c0,0.164 0.0941,0.329 0.2353,0.399l1.9761,1.153c0.1412,0.094 0.3294,0.094 0.4705,0l1.9762,-1.153c0.1647,-0.07 0.2588,-0.235 0.2588,-0.399z"/>
  <path id="svg_92" fill="white" d="m279.141,47.286c0,-10.651 8.634,-19.286 19.285,-19.286l178.715,0c10.651,0 19.285,8.635 19.285,19.286l0,0c0,10.651 -8.634,19.285 -19.285,19.285l-178.715,0c-10.651,0 -19.285,-8.634 -19.285,-19.285l0,0z"/>
  <path id="svg_93" fill="#A12141" d="m477.141,30.571l-178.715,0c-9.231,0 -16.714,7.484 -16.714,16.715c0,9.231 7.483,16.714 16.714,16.714l178.715,0c9.231,0 16.714,-7.483 16.714,-16.714c0,-9.231 -7.483,-16.715 -16.714,-16.715zm-178.715,-2.571c-10.651,0 -19.285,8.635 -19.285,19.286c0,10.651 8.634,19.285 19.285,19.285l178.715,0c10.651,0 19.285,-8.634 19.285,-19.285c0,-10.651 -8.634,-19.286 -19.285,-19.286l-178.715,0z" clip-rule="evenodd" fill-rule="evenodd"/>
  <path id="svg_94" fill="#A12141" d="m317.715,51.988l-0.91,0.139l0,-9.982l2.545,0l0,11.571l-3.317,0l-7.405,-9.982l0.894,-0.139l0,10.121l-2.53,0l0,-11.571l3.394,0l7.329,9.843z"/>
  <path id="svg_95" fill="#A12141" d="m326.391,53.948c-1.091,0 -2.047,-0.19 -2.87,-0.571c-0.823,-0.391 -1.466,-0.931 -1.929,-1.62c-0.462,-0.699 -0.694,-1.507 -0.694,-2.422c0,-0.926 0.232,-1.733 0.694,-2.423c0.463,-0.699 1.106,-1.239 1.929,-1.62c0.823,-0.39 1.779,-0.586 2.87,-0.586c1.09,0 2.047,0.196 2.869,0.586c0.823,0.381 1.461,0.921 1.914,1.62c0.462,0.69 0.694,1.497 0.694,2.423c0,0.915 -0.232,1.723 -0.694,2.422c-0.453,0.689 -1.091,1.229 -1.914,1.62c-0.822,0.381 -1.779,0.571 -2.869,0.571zm0,-1.96c0.596,0 1.105,-0.108 1.527,-0.324c0.432,-0.216 0.761,-0.519 0.988,-0.91c0.236,-0.401 0.354,-0.874 0.354,-1.419c0,-0.556 -0.118,-1.029 -0.354,-1.42c-0.227,-0.401 -0.556,-0.709 -0.988,-0.925c-0.422,-0.216 -0.931,-0.324 -1.527,-0.324c-0.587,0 -1.096,0.108 -1.528,0.324c-0.432,0.216 -0.766,0.524 -1.003,0.925c-0.226,0.391 -0.339,0.864 -0.339,1.42c0,0.545 0.113,1.018 0.339,1.419c0.237,0.391 0.571,0.694 1.003,0.91c0.432,0.216 0.941,0.324 1.528,0.324z"/>
  <path id="svg_96" fill="#A12141" d="m332.309,46.882l0,-1.142l1.836,-0.602l1.095,-2.515l1.481,0l0,2.315l3.888,0l0,1.944l-3.888,0l0,3.193c0,0.679 0.139,1.157 0.417,1.435c0.288,0.268 0.782,0.401 1.481,0.401c0.442,0 0.833,-0.041 1.173,-0.123c0.339,-0.082 0.663,-0.201 0.972,-0.355l0,2.006c-0.299,0.123 -0.695,0.236 -1.188,0.339c-0.494,0.113 -1.003,0.17 -1.528,0.17c-0.915,0 -1.661,-0.144 -2.237,-0.432c-0.566,-0.298 -0.987,-0.71 -1.265,-1.234c-0.268,-0.525 -0.401,-1.137 -0.401,-1.836l0,-3.564l-1.836,0z"/>
  <path id="svg_97" fill="#A12141" d="m342.138,44.845l1.281,0.247l1.296,-0.247l0,8.871l-2.577,0l0,-8.871zm1.281,-0.91c-0.463,0 -0.844,-0.119 -1.142,-0.355c-0.288,-0.247 -0.432,-0.571 -0.432,-0.972c0,-0.412 0.144,-0.736 0.432,-0.972c0.298,-0.247 0.679,-0.37 1.142,-0.37c0.473,0 0.854,0.123 1.142,0.37c0.288,0.236 0.432,0.56 0.432,0.972c0,0.401 -0.144,0.725 -0.432,0.972c-0.288,0.236 -0.669,0.355 -1.142,0.355z"/>
  <path id="svg_98" fill="#A12141" d="m352.29,43.549c-0.658,0 -1.142,0.129 -1.45,0.386c-0.299,0.247 -0.448,0.663 -0.448,1.249l0,8.532l-2.576,0l0,-8.254c0,-0.802 0.154,-1.491 0.462,-2.067c0.309,-0.576 0.772,-1.019 1.389,-1.327c0.617,-0.309 1.394,-0.463 2.33,-0.463c0.401,0 0.761,0.036 1.08,0.108c0.319,0.062 0.632,0.149 0.941,0.262l0,1.944c-0.268,-0.123 -0.54,-0.216 -0.818,-0.277c-0.278,-0.062 -0.581,-0.093 -0.91,-0.093zm-6.31,3.996l0,-1.944l7.945,0l0,1.944l-7.945,0zm9.411,-2.7l1.296,0.247l1.281,-0.247l0,8.871l-2.577,0l0,-8.871zm1.296,-0.91c-0.473,0 -0.859,-0.119 -1.157,-0.355c-0.288,-0.247 -0.432,-0.571 -0.432,-0.972c0,-0.412 0.144,-0.736 0.432,-0.972c0.298,-0.247 0.684,-0.37 1.157,-0.37c0.473,0 0.854,0.123 1.142,0.37c0.288,0.236 0.432,0.56 0.432,0.972c0,0.401 -0.144,0.725 -0.432,0.972c-0.288,0.236 -0.669,0.355 -1.142,0.355z"/>
  <path id="svg_99" fill="#A12141" d="m369.992,50.137c-0.103,0.751 -0.396,1.414 -0.879,1.99c-0.473,0.576 -1.085,1.024 -1.836,1.343c-0.751,0.318 -1.589,0.478 -2.515,0.478c-1.049,0 -1.975,-0.19 -2.777,-0.571c-0.792,-0.391 -1.414,-0.936 -1.867,-1.635c-0.442,-0.7 -0.663,-1.502 -0.663,-2.407c0,-0.916 0.221,-1.718 0.663,-2.407c0.453,-0.7 1.075,-1.245 1.867,-1.636c0.802,-0.39 1.728,-0.586 2.777,-0.586c0.926,0 1.764,0.165 2.515,0.494c0.751,0.319 1.363,0.766 1.836,1.342c0.483,0.566 0.776,1.229 0.879,1.99l-2.576,0c-0.134,-0.596 -0.443,-1.054 -0.926,-1.373c-0.473,-0.329 -1.049,-0.493 -1.728,-0.493c-0.545,0 -1.023,0.108 -1.435,0.324c-0.401,0.205 -0.71,0.509 -0.926,0.91c-0.216,0.391 -0.324,0.869 -0.324,1.435c0,0.555 0.108,1.033 0.324,1.435c0.216,0.39 0.525,0.694 0.926,0.91c0.412,0.206 0.89,0.308 1.435,0.308c0.689,0 1.27,-0.169 1.743,-0.509c0.484,-0.339 0.787,-0.787 0.911,-1.342l2.576,0z"/>
  <path id="svg_100" fill="#A12141" d="m379.422,53.716l-0.371,-3.209l0.417,-1.172l-0.417,-1.157l0.371,-3.24l2.669,0l-0.509,4.397l0.509,4.381l-2.669,0zm0.678,-4.381c-0.164,0.925 -0.468,1.738 -0.91,2.437c-0.432,0.69 -0.982,1.224 -1.651,1.605c-0.658,0.381 -1.399,0.571 -2.221,0.571c-0.854,0 -1.61,-0.19 -2.268,-0.571c-0.659,-0.391 -1.173,-0.931 -1.543,-1.62c-0.36,-0.699 -0.54,-1.507 -0.54,-2.422c0,-0.926 0.18,-1.733 0.54,-2.423c0.37,-0.699 0.884,-1.239 1.543,-1.62c0.658,-0.39 1.414,-0.586 2.268,-0.586c0.822,0 1.563,0.19 2.221,0.571c0.669,0.381 1.224,0.921 1.667,1.62c0.442,0.689 0.74,1.502 0.894,2.438zm-6.526,0c0,0.514 0.103,0.967 0.309,1.357c0.216,0.391 0.509,0.7 0.879,0.926c0.37,0.216 0.797,0.324 1.281,0.324c0.483,0 0.936,-0.108 1.357,-0.324c0.432,-0.226 0.813,-0.535 1.142,-0.926c0.329,-0.39 0.586,-0.843 0.772,-1.357c-0.186,-0.515 -0.443,-0.967 -0.772,-1.358c-0.329,-0.401 -0.71,-0.71 -1.142,-0.926c-0.421,-0.226 -0.874,-0.339 -1.357,-0.339c-0.484,0 -0.911,0.113 -1.281,0.339c-0.37,0.216 -0.663,0.525 -0.879,0.926c-0.206,0.391 -0.309,0.843 -0.309,1.358z"/>
  <path id="svg_101" fill="#A12141" d="m382.919,46.882l0,-1.142l1.836,-0.602l1.095,-2.515l1.481,0l0,2.315l3.888,0l0,1.944l-3.888,0l0,3.193c0,0.679 0.139,1.157 0.417,1.435c0.288,0.268 0.782,0.401 1.481,0.401c0.442,0 0.833,-0.041 1.173,-0.123c0.339,-0.082 0.663,-0.201 0.972,-0.355l0,2.006c-0.299,0.123 -0.695,0.236 -1.188,0.339c-0.494,0.113 -1.003,0.17 -1.528,0.17c-0.915,0 -1.661,-0.144 -2.237,-0.432c-0.566,-0.298 -0.987,-0.71 -1.265,-1.234c-0.268,-0.525 -0.401,-1.137 -0.401,-1.836l0,-3.564l-1.836,0z"/>
  <path id="svg_102" fill="#A12141" d="m392.748,44.845l1.281,0.247l1.296,-0.247l0,8.871l-2.577,0l0,-8.871zm1.281,-0.91c-0.463,0 -0.844,-0.119 -1.142,-0.355c-0.288,-0.247 -0.432,-0.571 -0.432,-0.972c0,-0.412 0.144,-0.736 0.432,-0.972c0.298,-0.247 0.679,-0.37 1.142,-0.37c0.473,0 0.854,0.123 1.142,0.37c0.288,0.236 0.432,0.56 0.432,0.972c0,0.401 -0.144,0.725 -0.432,0.972c-0.288,0.236 -0.669,0.355 -1.142,0.355z"/>
  <path id="svg_103" fill="#A12141" d="m402.298,53.948c-1.09,0 -2.047,-0.19 -2.87,-0.571c-0.822,-0.391 -1.465,-0.931 -1.928,-1.62c-0.463,-0.699 -0.694,-1.507 -0.694,-2.422c0,-0.926 0.231,-1.733 0.694,-2.423c0.463,-0.699 1.106,-1.239 1.928,-1.62c0.823,-0.39 1.78,-0.586 2.87,-0.586c1.09,0 2.047,0.196 2.87,0.586c0.823,0.381 1.46,0.921 1.913,1.62c0.463,0.69 0.694,1.497 0.694,2.423c0,0.915 -0.231,1.723 -0.694,2.422c-0.453,0.689 -1.09,1.229 -1.913,1.62c-0.823,0.381 -1.78,0.571 -2.87,0.571zm0,-1.96c0.597,0 1.106,-0.108 1.528,-0.324c0.432,-0.216 0.761,-0.519 0.987,-0.91c0.237,-0.401 0.355,-0.874 0.355,-1.419c0,-0.556 -0.118,-1.029 -0.355,-1.42c-0.226,-0.401 -0.555,-0.709 -0.987,-0.925c-0.422,-0.216 -0.931,-0.324 -1.528,-0.324c-0.586,0 -1.095,0.108 -1.527,0.324c-0.432,0.216 -0.767,0.524 -1.003,0.925c-0.226,0.391 -0.34,0.864 -0.34,1.42c0,0.545 0.114,1.018 0.34,1.419c0.236,0.391 0.571,0.694 1.003,0.91c0.432,0.216 0.941,0.324 1.527,0.324z"/>
  <path id="svg_104" fill="#A12141" d="m408.83,44.938l2.577,0l0.555,3.348l0,5.43l-2.577,0l0,-5.816l-0.555,-2.962zm6.48,-0.232c0.833,0 1.543,0.17 2.129,0.509c0.586,0.329 1.034,0.803 1.342,1.42c0.309,0.617 0.463,1.352 0.463,2.206l0,4.875l-2.576,0l0,-4.489c0,-0.792 -0.191,-1.389 -0.571,-1.79c-0.381,-0.411 -0.936,-0.617 -1.666,-0.617c-0.494,0 -0.931,0.113 -1.312,0.339c-0.37,0.216 -0.658,0.52 -0.864,0.911c-0.195,0.39 -0.293,0.858 -0.293,1.404l-0.849,-0.448c0.103,-0.926 0.35,-1.707 0.741,-2.345c0.391,-0.638 0.885,-1.126 1.481,-1.466c0.597,-0.339 1.255,-0.509 1.975,-0.509z"/>
  <path id="svg_105" fill="#A12141" d="m431.533,42.145c0.915,0 1.707,0.159 2.376,0.478c0.669,0.319 1.178,0.767 1.527,1.343c0.36,0.576 0.54,1.244 0.54,2.005c0,0.761 -0.18,1.43 -0.54,2.006c-0.349,0.566 -0.858,1.013 -1.527,1.342c-0.669,0.319 -1.461,0.479 -2.376,0.479l-5.107,0l0,-2.16l4.968,0c0.607,0 1.08,-0.15 1.42,-0.448c0.349,-0.298 0.524,-0.704 0.524,-1.219c0,-0.524 -0.175,-0.931 -0.524,-1.219c-0.34,-0.298 -0.813,-0.447 -1.42,-0.447l-4.736,0l1.188,-1.25l0,10.661l-2.623,0l0,-11.571l6.31,0z"/>
  <path id="svg_106" fill="#A12141" d="m441.005,53.948c-0.813,0 -1.507,-0.165 -2.083,-0.494c-0.566,-0.339 -1.003,-0.818 -1.312,-1.435c-0.298,-0.617 -0.447,-1.347 -0.447,-2.191l0,-4.89l2.576,0l0,4.505c0,0.781 0.186,1.378 0.556,1.789c0.37,0.402 0.895,0.602 1.574,0.602c0.504,0 0.93,-0.103 1.28,-0.308c0.36,-0.216 0.638,-0.525 0.833,-0.926c0.196,-0.401 0.293,-0.869 0.293,-1.404l0.834,0.447c-0.103,0.905 -0.345,1.682 -0.726,2.33c-0.38,0.638 -0.864,1.126 -1.45,1.466c-0.576,0.339 -1.219,0.509 -1.928,0.509zm3.81,-0.232l-0.54,-3.332l0,-5.446l2.577,0l0,5.832l0.54,2.946l-2.577,0z"/>
  <path id="svg_107" fill="#A12141" d="m458.53,50.955c0,0.627 -0.185,1.167 -0.556,1.62c-0.36,0.452 -0.9,0.797 -1.62,1.033c-0.72,0.227 -1.599,0.34 -2.638,0.34c-1.07,0 -2,-0.129 -2.792,-0.386c-0.792,-0.267 -1.41,-0.643 -1.852,-1.126c-0.442,-0.484 -0.679,-1.044 -0.71,-1.682l2.623,0c0.062,0.288 0.216,0.54 0.463,0.756c0.247,0.206 0.566,0.365 0.957,0.478c0.401,0.114 0.864,0.17 1.388,0.17c0.731,0 1.281,-0.082 1.651,-0.247c0.381,-0.164 0.571,-0.411 0.571,-0.74c0,-0.237 -0.134,-0.417 -0.401,-0.54c-0.257,-0.124 -0.736,-0.216 -1.435,-0.278l-1.635,-0.123c-0.978,-0.083 -1.754,-0.247 -2.33,-0.494c-0.576,-0.247 -0.988,-0.556 -1.234,-0.926c-0.237,-0.38 -0.355,-0.797 -0.355,-1.25c0,-0.627 0.195,-1.152 0.586,-1.573c0.391,-0.422 0.936,-0.741 1.635,-0.957c0.71,-0.216 1.528,-0.324 2.454,-0.324c0.946,0 1.789,0.129 2.53,0.386c0.74,0.257 1.332,0.612 1.774,1.064c0.453,0.453 0.71,0.978 0.772,1.574l-2.623,0c-0.041,-0.216 -0.16,-0.416 -0.355,-0.602c-0.185,-0.195 -0.458,-0.354 -0.818,-0.478c-0.36,-0.123 -0.828,-0.185 -1.404,-0.185c-0.648,0 -1.147,0.077 -1.496,0.231c-0.35,0.144 -0.525,0.366 -0.525,0.664c0,0.206 0.108,0.375 0.324,0.509c0.216,0.123 0.617,0.211 1.203,0.262l2.13,0.17c0.946,0.082 1.692,0.242 2.237,0.478c0.545,0.227 0.925,0.525 1.141,0.895c0.227,0.37 0.34,0.797 0.34,1.281z"/>
  <path id="svg_108" fill="#A12141" d="m460.007,41.836l2.577,0l0,11.88l-2.577,0l0,-11.88zm5.925,2.87c0.833,0 1.543,0.17 2.129,0.509c0.586,0.329 1.034,0.803 1.342,1.42c0.309,0.617 0.463,1.352 0.463,2.206l0,4.875l-2.577,0l0,-4.489c0,-0.792 -0.19,-1.389 -0.57,-1.79c-0.381,-0.411 -0.931,-0.617 -1.651,-0.617c-0.504,0 -0.947,0.113 -1.327,0.339c-0.37,0.216 -0.658,0.52 -0.864,0.911c-0.196,0.39 -0.293,0.858 -0.293,1.404l-0.849,-0.448c0.113,-0.926 0.36,-1.707 0.741,-2.345c0.391,-0.638 0.884,-1.126 1.481,-1.466c0.596,-0.339 1.255,-0.509 1.975,-0.509z"/>
 </g>
</svg>